<?xml version="1.0" encoding="UTF-8"?>
<svg version="1.1" xmlns="http://www.w3.org/2000/svg" width="296" height="224">
<path d="M0 0 C14.48823379 12.57348924 21.39000153 30.16537958 24.125 48.75 C26.52455732 87.69268917 17.43809601 127.18324255 -7.875 157.75 C-8.43445313 158.471875 -8.99390625 159.19375 -9.5703125 159.9375 C-17.56298939 169.82216321 -28.39286458 177.10153119 -40.875 179.75 C-46.86373431 180.32562696 -51.55780573 179.81761208 -56.875 176.75 C-60.97330663 173.09716148 -62.12358143 170.83651275 -62.6875 165.375 C-62.77157626 163.83435937 -62.8414659 162.29256858 -62.875 160.75 C-63.7103125 161.801875 -63.7103125 161.801875 -64.5625 162.875 C-77.38499029 178.81647441 -92.21758559 192.55025477 -113.35546875 195.18359375 C-121.02475166 195.4802952 -128.38865478 194.40393899 -134.49609375 189.4296875 C-141.90773177 181.38025274 -141.23164973 171.89470338 -140.875 161.75 C-141.46925781 162.54921875 -142.06351562 163.3484375 -142.67578125 164.171875 C-157.95738071 184.5140409 -176.07410248 203.0777954 -201.875 208.75 C-213.87457564 209.70538023 -225.89901316 210.33078947 -235.6875 202.5 C-246.15837477 189.33661457 -246.0516927 176.08858693 -244.875 159.75 C-240.01542465 121.82738502 -216.00090756 85.53946374 -190.2734375 58.30078125 C-188.30663736 56.20905406 -186.4564995 54.08302605 -184.625 51.875 C-158.43791017 21.81297087 -120.30608064 -2.09463672 -81.875 -12.25 C-80.72386719 -12.56839844 -79.57273438 -12.88679687 -78.38671875 -13.21484375 C-51.70545822 -19.43378417 -22.12702832 -17.01376731 0 0 Z M-79.6875 47.8125 C-82.85103304 52.9740539 -82.41484277 58.90786593 -81.875 64.75 C-80.66851355 68.68827182 -78.87380783 71.64417705 -76.125 74.6875 C-71.47692547 76.88242408 -67.52290544 77.23467807 -62.6875 75.8125 C-58.80918207 72.96840018 -56.52812265 70.2996196 -54.875 65.75 C-54.01597452 59.10470854 -53.72600117 52.32968809 -57.875 46.75 C-61.28367561 43.67387811 -63.52730491 41.87958607 -68.125 41.4375 C-73.34716101 41.87268008 -76.26525982 43.91822669 -79.6875 47.8125 Z M-33.875 45.75 C-37.37940301 51.35704482 -38.31264991 56.18525137 -37.875 62.75 C-36.55720169 68.20796779 -34.53748835 72.4051714 -29.875 75.75 C-25.61244414 76.99776635 -22.18615157 77.30359733 -18.0625 75.5625 C-17.340625 74.964375 -16.61875 74.36625 -15.875 73.75 C-15.153125 73.1725 -14.43125 72.595 -13.6875 72 C-10.19206065 67.66083391 -9.39142933 62.36283262 -9.5625 56.8671875 C-10.38661806 51.28378763 -12.53154861 46.97403349 -16.6875 43.1875 C-23.11343884 40.28952758 -28.58397576 41.28141476 -33.875 45.75 Z " fill="#AA9EF1" transform="translate(244.875,15.25)"/>
</svg>
