<?xml version="1.0" encoding="UTF-8"?>
<svg width="40" height="40" viewBox="0 0 40 40" fill="none" xmlns="http://www.w3.org/2000/svg">
  <defs>
    <linearGradient id="solflare-gradient" x1="0%" y1="0%" x2="100%" y2="100%">
      <stop offset="0%" style="stop-color:#FE9830;stop-opacity:1" />
      <stop offset="100%" style="stop-color:#EE4B2E;stop-opacity:1" />
    </linearGradient>
  </defs>
  <path d="M20 4C11.1634 4 4 11.1634 4 20C4 28.8366 11.1634 36 20 36C28.8366 36 36 28.8366 36 20C36 11.1634 28.8366 4 20 4Z" fill="url(#solflare-gradient)"/>
  <path d="M26.9231 14.4615L22.3077 19.0769C21.8462 19.5385 21.0769 19.5385 20.6154 19.0769L18.9231 17.3846C18.4615 16.9231 17.6923 16.9231 17.2308 17.3846L12.6154 22C12.3077 22.3077 12.3077 22.7692 12.6154 23.0769L13.8462 24.3077C14.1538 24.6154 14.6154 24.6154 14.9231 24.3077L17.8462 21.3846C18.3077 20.9231 19.0769 20.9231 19.5385 21.3846L21.2308 23.0769C21.6923 23.5385 22.4615 23.5385 22.9231 23.0769L28.0769 17.9231C28.5385 17.4615 28.5385 16.6923 28.0769 16.2308L26.9231 15.0769C26.4615 14.6154 26.4615 14.1538 26.9231 14.4615Z" fill="white"/>
</svg>